<?xml version="1.0" encoding="UTF-8" ?>
<!DOCTYPE svg PUBLIC "-//W3C//DTD SVG 1.1//EN" "http://www.w3.org/Graphics/SVG/1.1/DTD/svg11.dtd">
<svg width="1405pt" height="766pt" viewBox="0 0 1405 766" version="1.1" xmlns="http://www.w3.org/2000/svg">
<g id="#76828bff">
<path fill="#76828b" opacity="1.00" d=" M 965.48 159.51 C 966.87 163.10 968.46 166.71 971.53 169.22 C 972.17 176.89 970.73 184.43 969.77 191.99 C 969.24 203.53 968.25 215.06 968.50 226.62 C 969.30 225.05 970.09 223.47 970.86 221.87 C 971.44 221.48 972.59 220.68 973.17 220.29 C 976.99 222.38 977.37 227.56 974.40 230.56 C 972.61 232.12 970.41 230.38 968.57 229.93 C 969.03 233.86 966.70 238.77 969.81 241.93 C 969.57 243.11 968.56 243.67 967.54 244.07 C 967.63 248.42 969.17 252.63 968.75 257.02 C 968.36 263.97 968.89 270.93 968.47 277.88 C 971.59 277.20 974.68 276.04 977.93 276.19 C 980.74 276.56 983.25 278.04 985.98 278.74 C 987.72 278.33 989.31 277.45 991.05 277.03 C 994.07 277.36 997.16 277.32 1000.14 277.96 C 1000.32 278.54 1000.69 279.70 1000.87 280.28 C 996.76 279.32 992.54 279.40 988.36 279.42 C 994.58 284.50 1002.77 285.76 1010.31 287.66 C 1010.46 288.32 1010.74 289.65 1010.89 290.31 C 1006.15 289.89 1001.61 291.13 997.19 292.64 C 993.93 293.97 990.42 292.78 987.07 293.48 C 980.33 294.80 973.41 294.91 966.69 296.32 C 966.74 299.59 966.79 302.86 966.89 306.13 C 972.12 304.23 977.52 302.60 983.11 302.31 C 991.41 301.44 999.70 300.56 1008.01 299.85 C 1014.48 299.55 1021.04 299.97 1027.42 298.62 C 1028.49 299.31 1029.56 300.02 1030.62 300.75 C 1033.65 300.68 1036.68 300.45 1039.73 300.43 C 1034.75 303.06 1041.50 303.69 1043.41 303.57 C 1041.85 304.04 1040.33 304.57 1038.83 305.15 C 1047.94 305.42 1057.02 303.89 1066.02 302.50 C 1063.79 306.02 1059.76 307.49 1056.18 309.18 C 1040.51 315.38 1024.00 318.93 1008.04 324.27 C 994.42 328.58 980.87 333.14 967.56 338.35 C 963.81 339.84 959.96 341.18 956.52 343.34 C 955.90 343.46 954.65 343.72 954.03 343.84 C 952.56 344.37 951.01 344.70 949.50 344.95 C 948.87 348.38 950.14 352.07 948.68 355.33 C 946.84 350.07 947.90 344.46 947.73 339.02 C 947.53 333.69 948.39 328.24 947.00 323.02 C 946.34 320.50 946.26 317.90 946.15 315.32 C 945.80 315.33 945.10 315.33 944.75 315.33 C 942.87 329.30 948.32 343.18 945.86 357.09 L 944.72 358.39 C 944.42 352.30 944.82 346.11 943.51 340.11 C 943.19 345.38 941.87 350.77 943.52 355.97 C 943.09 355.84 942.22 355.58 941.79 355.45 C 940.53 342.28 940.19 329.02 938.35 315.91 C 937.48 309.90 936.01 303.92 933.18 298.50 C 925.59 297.66 918.20 300.32 910.60 299.75 C 907.35 306.46 905.09 313.61 903.15 320.79 C 904.68 319.45 906.20 318.09 907.76 316.77 C 907.12 318.86 906.39 320.94 906.40 323.15 C 904.94 325.62 903.02 327.76 900.96 329.73 C 901.39 330.00 902.26 330.55 902.70 330.82 C 902.28 331.11 901.45 331.67 901.03 331.96 C 901.18 332.74 901.35 333.53 901.53 334.32 C 898.80 336.15 896.00 338.17 895.09 341.53 C 896.01 341.55 897.86 341.60 898.78 341.63 C 898.71 342.03 898.58 342.83 898.51 343.23 C 895.79 343.25 893.65 344.53 892.87 347.25 C 892.20 346.46 891.77 345.45 891.47 344.49 C 883.45 344.82 875.26 345.41 867.45 343.15 C 867.83 342.85 868.58 342.24 868.96 341.94 L 869.45 341.59 C 869.55 341.09 869.75 340.10 869.85 339.60 C 865.25 337.40 860.22 336.37 855.49 334.55 C 844.76 328.75 837.15 318.60 832.33 307.59 C 831.98 317.39 832.38 327.19 832.26 336.99 C 832.20 339.05 831.63 341.05 831.14 343.05 C 830.59 342.39 829.49 341.07 828.94 340.41 C 828.20 340.55 827.46 340.70 826.74 340.85 C 826.75 343.85 826.34 346.83 825.40 349.69 C 823.41 349.55 821.46 349.18 819.58 348.58 C 819.53 349.47 819.43 351.26 819.38 352.15 C 818.50 351.08 817.66 349.99 816.83 348.91 C 816.14 350.53 815.45 352.15 814.75 353.77 C 814.42 355.59 815.18 360.58 812.00 359.42 C 811.52 356.63 811.41 353.80 811.18 350.99 C 810.55 350.57 809.29 349.72 808.66 349.30 C 808.73 351.13 808.75 352.96 808.70 354.80 C 808.10 353.40 807.77 351.93 807.48 350.47 C 806.70 350.37 805.15 350.18 804.38 350.09 C 804.19 354.69 805.77 359.21 805.37 363.80 C 805.10 364.13 804.57 364.79 804.31 365.12 C 803.93 369.59 806.45 374.21 804.80 378.54 C 802.62 366.41 801.45 354.09 798.49 342.10 C 795.05 319.73 792.32 297.26 789.09 274.86 C 783.36 289.24 777.45 303.57 770.50 317.42 C 768.64 320.68 768.12 324.89 765.15 327.39 C 765.57 325.23 766.25 323.15 766.90 321.05 C 764.20 320.11 763.74 317.08 763.01 314.72 C 760.40 304.90 756.98 295.30 754.91 285.35 C 752.82 293.36 749.18 300.86 747.20 308.91 C 744.61 318.96 741.95 329.00 739.34 339.05 C 737.81 344.59 736.72 350.30 734.28 355.54 C 732.67 358.83 732.74 362.69 730.82 365.85 C 728.65 369.96 725.65 373.84 725.13 378.60 C 724.80 378.59 724.12 378.56 723.78 378.54 C 723.06 381.25 723.16 384.58 720.84 386.54 C 720.56 384.45 720.48 382.36 720.60 380.27 C 721.53 378.50 721.78 376.51 721.72 374.55 C 720.22 377.71 720.28 381.42 718.40 384.43 C 717.24 386.37 716.16 388.34 715.26 390.41 C 714.05 391.78 712.92 393.22 711.84 394.70 C 710.31 393.30 709.85 391.25 710.44 389.28 C 712.83 379.68 716.69 370.53 719.44 361.04 C 726.32 335.40 731.15 309.27 736.82 283.35 C 737.07 283.30 737.57 283.21 737.82 283.17 C 738.23 282.07 738.95 281.15 739.81 280.35 C 739.46 280.47 738.77 280.69 738.42 280.81 C 738.10 280.30 737.46 279.29 737.13 278.79 C 737.22 279.35 737.40 280.47 737.49 281.03 C 736.24 283.09 735.34 285.33 734.20 287.45 C 734.33 283.33 736.14 279.55 736.82 275.54 C 734.26 276.94 733.82 280.05 732.44 282.38 C 729.62 288.29 725.03 293.11 720.01 297.22 C 717.43 297.71 714.71 297.58 712.18 296.93 C 697.91 294.68 683.43 293.98 668.99 294.29 C 664.38 294.42 659.76 294.47 655.17 294.07 L 655.14 294.62 C 667.22 295.47 679.46 295.27 691.35 297.77 C 688.72 299.07 685.79 299.47 682.89 299.60 C 673.69 300.70 664.40 300.64 655.19 301.49 C 653.08 308.48 653.44 315.96 653.59 323.20 C 659.27 325.21 665.44 323.13 671.05 325.34 C 676.27 324.89 681.48 324.02 686.75 324.40 C 686.68 324.87 686.53 325.81 686.46 326.28 C 685.47 326.37 683.49 326.55 682.50 326.64 C 687.53 327.55 692.79 327.88 697.40 330.34 C 697.46 330.89 697.57 332.00 697.63 332.55 C 696.19 332.59 694.76 332.62 693.33 332.64 C 693.51 333.27 693.86 334.53 694.03 335.16 C 689.04 337.21 683.67 337.35 678.39 337.73 C 680.45 338.31 682.59 338.58 684.78 338.54 C 681.53 342.08 676.31 341.22 672.01 341.90 C 666.67 342.75 661.31 341.92 655.97 341.72 C 654.27 341.49 651.97 342.10 651.85 344.13 C 651.10 354.30 650.19 364.45 649.42 374.62 C 667.28 374.51 685.14 374.78 702.97 375.74 C 704.23 376.29 706.11 376.36 706.69 377.84 C 706.63 379.77 704.77 380.84 703.65 382.19 C 700.21 381.98 697.09 383.38 694.00 384.66 C 690.10 385.19 686.16 384.66 682.26 384.49 C 682.24 384.72 682.20 385.18 682.19 385.40 C 683.09 385.41 684.90 385.43 685.80 385.44 L 684.41 387.09 C 672.18 388.49 659.56 388.11 647.63 391.53 C 647.42 392.30 646.99 393.83 646.78 394.60 C 646.03 393.51 645.26 392.44 644.47 391.39 C 641.67 391.52 638.86 391.51 636.06 391.37 C 636.15 392.37 636.25 393.38 636.35 394.39 C 639.75 395.56 643.29 396.01 646.87 395.54 C 651.97 396.77 656.84 398.92 661.98 400.09 C 671.47 406.66 682.23 412.27 689.01 421.96 C 693.26 428.64 697.50 435.41 700.32 442.85 C 699.97 444.23 699.45 445.58 698.75 446.83 C 697.08 447.12 697.07 444.92 696.44 443.90 C 697.94 454.52 700.90 465.43 698.31 476.13 C 697.62 479.10 697.45 482.18 696.40 485.06 C 695.09 487.33 693.30 489.34 692.52 491.89 C 701.88 479.89 702.44 463.22 698.53 449.04 L 699.13 448.84 C 701.72 449.40 702.03 452.92 703.20 454.96 C 703.87 460.73 703.05 466.55 703.37 472.33 C 704.26 466.54 704.21 460.65 705.11 454.86 C 705.86 448.95 707.50 443.13 707.48 437.13 C 707.88 429.11 705.46 421.09 707.67 413.18 C 708.11 413.55 708.97 414.31 709.40 414.69 C 710.26 410.50 710.77 406.26 710.51 401.99 C 710.07 399.89 711.53 398.27 713.52 397.81 C 714.52 403.59 711.53 410.09 715.05 415.29 C 715.46 413.89 715.93 412.50 716.46 411.14 C 719.05 412.16 718.32 415.62 718.55 417.85 C 722.74 420.56 726.53 423.84 730.88 426.30 C 735.01 428.64 737.14 433.17 740.76 436.11 C 745.73 439.82 747.85 445.99 752.16 450.33 C 752.22 449.64 752.33 448.26 752.39 447.57 C 752.87 447.51 753.83 447.39 754.31 447.33 C 753.92 446.72 753.13 445.51 752.74 444.90 C 753.63 442.57 753.20 438.43 756.56 438.35 C 757.45 432.95 758.78 427.44 761.82 422.83 C 764.49 420.91 767.67 419.03 771.10 419.56 C 773.01 421.55 774.62 424.07 777.49 424.74 C 781.52 432.29 786.07 439.55 789.48 447.42 C 793.03 447.44 796.58 447.15 800.04 446.30 C 803.07 439.83 806.63 433.62 810.16 427.41 C 811.97 423.01 814.47 418.94 817.22 415.07 C 818.89 412.82 821.37 411.18 822.54 408.57 C 824.32 404.96 824.32 400.88 824.43 396.95 C 824.49 392.33 826.16 387.93 828.12 383.81 C 829.21 386.67 828.23 389.76 828.20 392.71 C 829.28 391.51 830.54 390.56 831.98 389.85 C 831.00 392.34 829.57 394.66 829.08 397.33 C 831.08 396.14 832.59 394.37 834.23 392.75 C 834.27 395.09 834.10 397.43 834.17 399.77 C 835.11 402.95 837.78 405.57 837.64 409.06 C 838.34 412.87 840.02 416.47 840.38 420.37 C 839.73 421.24 839.10 422.11 838.48 422.99 C 838.83 432.15 837.97 441.39 839.69 450.45 C 840.35 450.55 841.67 450.75 842.33 450.85 C 842.85 447.47 842.64 444.06 842.08 440.70 C 842.06 434.64 843.71 428.71 845.43 422.94 C 845.21 418.76 844.73 414.58 845.54 410.41 C 846.04 410.53 847.03 410.76 847.53 410.87 C 848.47 402.39 849.39 393.91 849.83 385.39 C 852.08 376.42 850.42 366.41 855.47 358.26 C 858.68 360.70 863.46 360.43 866.10 363.63 C 868.88 369.16 872.54 374.16 876.17 379.15 C 877.33 379.34 878.51 379.53 879.70 379.73 C 879.10 381.43 877.53 383.29 879.02 384.99 C 884.73 394.40 889.79 404.29 896.54 413.02 C 896.23 407.33 897.60 401.75 897.70 396.07 C 897.66 389.89 899.58 383.75 898.33 377.58 C 895.43 378.00 892.55 378.59 889.63 378.75 C 892.54 377.02 895.89 376.28 899.07 375.21 C 899.60 373.10 899.97 370.91 900.98 368.96 C 902.87 367.57 905.07 366.69 907.09 365.48 C 908.29 365.56 909.50 365.66 910.72 365.76 C 912.17 364.74 913.71 363.83 915.31 363.03 C 915.87 362.00 916.45 360.97 917.04 359.96 C 919.60 361.55 919.21 364.35 918.60 366.87 C 921.05 366.47 923.46 365.20 925.99 365.72 C 930.79 366.67 935.64 365.94 940.46 365.72 C 937.12 368.15 932.93 368.59 929.05 369.62 C 925.18 370.40 922.15 373.09 918.84 375.05 C 918.56 385.56 918.24 396.15 919.31 406.62 C 922.12 406.37 924.90 405.78 927.75 405.98 C 927.05 405.51 926.35 405.05 925.67 404.59 C 924.10 405.40 922.61 405.49 921.20 404.86 C 921.19 404.64 921.18 404.22 921.17 404.00 C 929.21 401.82 937.43 400.46 945.73 399.75 C 945.72 399.27 945.68 398.32 945.67 397.84 C 944.97 397.31 943.57 396.26 942.88 395.73 C 944.30 395.67 945.74 395.62 947.19 395.59 C 951.46 393.03 956.63 392.24 961.42 391.01 C 961.45 389.59 961.22 388.10 961.88 386.78 C 967.36 386.04 972.71 383.81 978.32 384.72 C 978.36 383.21 978.43 381.70 978.59 380.20 C 978.32 380.58 977.77 381.33 977.49 381.70 C 973.58 381.45 969.54 381.40 965.82 380.15 L 965.01 378.65 C 970.52 379.38 976.07 379.92 981.64 379.77 L 981.26 380.22 C 990.17 380.85 999.07 381.87 1008.03 381.80 C 1015.55 382.58 1023.14 382.51 1030.70 382.38 C 1031.25 381.02 1032.44 380.30 1033.74 379.80 C 1033.54 380.92 1033.34 382.04 1033.14 383.17 C 1042.40 383.44 1051.63 384.06 1060.86 384.74 C 1063.92 385.24 1066.95 385.99 1069.96 386.76 C 1069.91 387.01 1069.80 387.52 1069.75 387.77 C 1069.03 388.03 1067.60 388.54 1066.88 388.80 C 1068.71 388.50 1070.89 389.18 1072.42 387.83 C 1074.82 387.46 1077.29 387.73 1079.69 388.07 C 1077.74 386.94 1075.92 385.61 1074.34 384.03 C 1075.29 383.82 1077.19 383.39 1078.15 383.18 C 1073.48 382.38 1068.75 381.82 1064.02 381.75 C 1061.17 381.87 1058.77 379.99 1056.01 379.68 C 1052.67 379.32 1049.30 379.45 1046.01 378.76 C 1041.57 377.96 1036.92 379.05 1032.60 377.65 C 1049.30 376.73 1065.91 379.73 1082.44 381.78 C 1085.91 382.38 1089.72 382.21 1092.79 384.23 C 1091.92 386.63 1089.00 387.60 1088.11 390.10 C 1084.25 397.43 1077.98 403.05 1071.09 407.48 C 1068.12 407.64 1065.07 407.75 1062.21 406.89 C 1044.63 404.10 1026.83 403.27 1009.06 402.57 C 1004.14 402.34 999.17 402.79 994.33 401.80 C 994.95 402.25 995.58 402.70 996.24 403.16 C 1010.02 403.17 1023.69 405.06 1037.34 406.79 C 1036.38 407.53 1035.38 408.35 1034.10 408.29 C 1024.86 408.84 1015.62 409.65 1006.35 409.32 C 1006.96 410.18 1008.18 411.91 1008.79 412.77 C 1009.23 413.04 1010.10 413.58 1010.54 413.84 C 1010.49 414.30 1010.38 415.22 1010.33 415.68 C 1007.81 414.63 1005.35 413.43 1003.13 411.84 C 1003.63 412.61 1004.64 414.14 1005.14 414.91 C 1003.05 414.60 1001.05 414.19 999.00 413.77 C 1002.99 415.81 1007.58 417.43 1010.05 421.46 C 1006.31 422.92 1003.88 417.29 1000.48 419.31 C 999.73 421.46 1002.58 422.33 1003.72 423.71 C 1003.67 424.16 1003.58 425.06 1003.53 425.51 C 999.82 424.29 996.48 422.20 992.81 420.92 C 992.66 424.14 992.63 427.37 992.53 430.60 C 998.65 433.85 1005.77 430.97 1012.08 433.38 C 1018.47 434.19 1024.94 432.00 1031.34 433.28 C 1031.43 433.94 1031.61 435.27 1031.70 435.94 C 1036.22 436.82 1040.75 437.87 1044.90 439.94 C 1044.25 440.41 1042.96 441.35 1042.31 441.82 C 1042.30 442.37 1042.28 443.47 1042.27 444.02 C 1037.81 444.13 1033.56 445.87 1029.10 445.65 C 1025.54 445.69 1021.85 445.29 1018.44 446.51 C 1021.85 446.82 1025.27 446.59 1028.69 446.54 C 1028.66 446.94 1028.60 447.74 1028.58 448.14 C 1023.53 449.76 1018.20 449.59 1013.00 450.13 C 1005.64 450.83 998.22 448.60 990.91 449.87 C 989.00 455.21 989.33 461.05 988.34 466.60 C 993.77 465.41 999.04 463.65 1004.25 461.73 C 1003.49 463.11 1002.87 464.58 1001.99 465.89 C 999.67 467.47 996.94 468.47 995.10 470.69 C 995.23 471.09 995.49 471.88 995.63 472.28 C 992.52 473.42 988.44 473.54 986.62 476.66 C 988.53 476.75 990.45 476.87 992.37 477.01 C 990.01 478.46 985.92 477.68 986.16 481.53 C 1007.08 482.48 1028.07 482.43 1048.93 484.40 C 1051.05 484.80 1053.12 485.48 1055.24 486.01 C 1053.23 487.95 1051.05 490.41 1048.04 490.43 C 1044.88 490.51 1041.92 491.57 1038.98 492.60 C 1033.91 493.32 1028.76 492.62 1023.71 492.10 C 1025.44 492.74 1027.28 493.20 1028.80 494.34 C 1023.99 495.76 1018.96 495.35 1014.02 495.48 C 1003.81 495.50 993.67 496.75 983.55 497.87 C 983.02 500.04 984.14 502.99 982.29 504.65 C 981.72 502.30 981.38 499.89 980.40 497.67 C 973.63 498.45 966.93 497.04 960.45 495.24 C 959.08 493.34 958.34 491.08 957.02 489.17 C 955.65 489.14 954.30 489.10 952.97 489.06 C 951.44 488.08 951.73 486.04 951.28 484.54 C 956.10 482.71 961.93 483.34 966.06 479.94 C 949.96 481.34 933.86 479.67 917.86 478.08 C 914.72 478.12 912.86 475.27 909.95 474.83 C 897.45 472.65 884.97 469.11 874.05 462.49 C 870.46 462.70 866.87 462.71 863.29 462.71 C 862.49 468.19 862.22 473.86 860.03 479.03 C 858.88 477.66 858.13 476.08 857.35 474.52 C 857.45 480.69 856.24 486.79 856.20 492.96 C 855.07 492.44 853.93 491.91 852.83 491.40 C 852.58 494.05 852.33 496.70 852.19 499.36 C 851.75 499.35 850.86 499.33 850.41 499.32 C 850.39 500.17 850.34 501.88 850.32 502.73 C 849.07 501.79 848.52 500.57 848.68 499.06 C 848.67 493.33 848.68 487.61 848.74 481.89 C 846.66 480.90 846.72 478.38 846.15 476.47 C 845.00 476.58 843.85 476.68 842.72 476.80 C 842.60 471.92 842.23 467.05 842.64 462.18 C 841.37 462.57 839.86 462.53 838.89 463.55 C 839.14 466.03 839.47 468.51 839.39 471.01 C 839.51 472.71 839.17 474.83 840.93 475.89 C 840.48 478.94 839.60 481.94 839.61 485.06 C 839.65 489.30 836.97 493.08 837.51 497.38 C 836.16 497.47 834.82 497.60 833.49 497.76 C 833.62 494.66 833.64 491.55 833.40 488.46 C 832.33 491.68 832.23 495.10 832.33 498.46 L 831.29 498.39 C 830.85 487.92 832.08 477.31 829.89 466.98 C 829.17 464.95 828.64 461.61 825.96 461.52 C 820.32 461.14 814.66 461.60 809.02 461.23 C 802.76 470.53 798.38 481.06 791.28 489.80 C 791.33 487.01 792.31 484.43 793.23 481.86 C 791.94 481.26 790.68 480.64 789.40 480.07 C 790.01 481.80 790.67 483.54 791.33 485.26 C 789.83 484.06 788.30 482.91 786.73 481.83 C 786.67 482.92 786.55 485.08 786.49 486.16 C 785.15 484.59 782.24 483.50 782.79 481.05 C 783.67 476.45 781.34 472.12 780.29 467.74 C 777.37 463.24 775.89 457.83 772.05 453.93 C 769.98 452.04 769.78 448.11 766.90 447.34 C 762.40 448.23 760.15 453.01 758.87 456.97 C 758.15 455.64 757.45 454.27 756.84 452.90 C 755.29 455.53 754.97 458.60 755.35 461.59 C 756.14 459.81 756.58 457.90 757.09 456.04 C 759.53 458.54 758.03 461.93 757.66 464.92 C 757.07 470.22 756.35 475.49 755.91 480.80 C 755.89 482.53 754.02 483.02 752.83 483.77 C 751.47 476.39 748.52 469.17 743.17 463.77 C 739.60 459.51 734.33 457.42 729.78 454.47 C 725.06 456.72 722.54 461.36 720.81 466.05 C 720.84 470.77 719.50 475.34 719.12 480.03 C 718.43 485.34 718.58 490.71 718.21 496.05 C 717.86 500.98 714.63 505.14 714.20 510.05 C 713.96 511.83 713.63 514.15 711.17 513.59 C 711.19 514.26 711.22 515.61 711.24 516.29 C 710.82 516.41 709.98 516.65 709.56 516.77 C 709.59 515.72 709.67 513.63 709.70 512.59 C 706.21 512.94 707.42 516.39 707.05 518.60 C 706.74 518.63 706.12 518.68 705.81 518.71 C 705.12 516.16 704.10 513.71 703.63 511.11 C 703.27 507.91 703.74 504.69 703.46 501.49 C 702.86 503.31 702.38 505.20 701.40 506.87 C 701.43 498.89 700.99 490.92 701.50 482.94 C 699.38 489.97 701.58 497.59 699.16 504.48 C 698.69 504.42 697.73 504.29 697.26 504.22 C 697.17 499.71 698.34 495.31 698.66 490.83 C 697.47 492.58 696.35 494.38 695.17 496.15 C 692.31 496.51 690.88 499.24 689.19 501.23 C 685.98 505.16 684.34 510.06 681.40 514.18 C 678.62 518.14 676.13 522.44 672.34 525.55 C 674.72 520.06 677.70 514.85 679.86 509.26 C 675.10 512.98 671.15 517.61 666.30 521.22 C 663.25 523.46 660.89 526.50 657.81 528.70 C 654.10 531.47 649.73 533.11 645.86 535.62 C 641.63 537.99 637.67 541.17 632.80 542.10 L 632.88 542.62 C 627.18 543.44 621.61 544.95 615.88 545.56 C 610.60 546.13 605.66 548.50 600.29 548.41 C 601.51 546.87 603.42 546.52 605.20 546.04 C 611.01 544.72 616.22 541.73 621.76 539.66 L 623.27 538.23 C 613.96 539.05 604.69 540.41 595.34 540.85 C 595.43 540.28 595.62 539.13 595.71 538.56 C 586.58 538.88 577.34 539.53 568.35 537.51 C 562.23 536.11 556.08 534.55 550.31 532.05 C 551.28 533.10 551.86 534.33 552.06 535.76 C 546.09 534.27 542.23 529.15 537.49 525.62 C 531.75 520.37 524.61 516.33 520.64 509.42 C 517.54 504.54 516.33 498.75 515.73 493.08 C 515.20 485.36 513.80 477.52 515.89 469.91 C 511.67 471.99 507.53 474.21 503.25 476.17 C 495.95 479.43 489.24 484.15 481.32 485.89 C 481.35 486.25 481.41 486.99 481.44 487.36 C 495.89 497.54 510.16 507.96 524.53 518.24 C 534.69 525.39 543.59 534.13 552.94 542.27 C 551.19 541.67 549.25 540.85 549.05 543.51 C 548.76 543.44 548.19 543.29 547.91 543.22 C 546.19 541.18 544.72 538.93 542.79 537.11 C 541.45 536.58 539.92 536.68 538.52 536.46 C 538.56 536.86 538.64 537.66 538.68 538.06 C 543.47 542.44 549.26 545.84 553.33 550.94 C 552.24 550.58 551.17 550.20 550.10 549.82 C 546.25 549.53 543.15 547.03 539.99 545.08 C 535.79 542.42 532.03 539.17 528.23 536.00 C 528.40 537.12 528.72 539.38 528.88 540.51 C 520.72 534.24 512.58 527.92 504.15 522.02 C 510.74 528.39 517.67 534.41 524.48 540.54 C 525.62 541.58 526.60 542.79 527.49 544.06 C 524.37 543.47 521.78 541.60 519.16 539.94 C 501.14 528.31 484.31 514.97 467.11 502.20 C 469.79 504.92 472.89 507.18 475.68 509.79 C 469.03 509.42 464.60 501.92 457.57 503.44 C 457.55 503.89 457.52 504.80 457.50 505.25 C 456.66 505.23 454.98 505.17 454.15 505.14 C 459.99 544.69 466.54 584.18 470.39 623.99 C 470.72 628.51 470.82 633.06 470.36 637.58 C 469.96 637.58 469.15 637.59 468.75 637.59 C 465.09 627.46 465.47 616.39 461.97 606.26 C 461.89 606.76 461.72 607.76 461.63 608.26 L 462.73 608.38 C 461.50 617.90 463.57 627.57 461.62 637.02 C 461.07 640.21 461.78 643.41 462.31 646.56 C 461.71 646.61 460.53 646.72 459.94 646.77 C 458.10 636.81 456.67 626.70 453.78 616.98 C 454.25 624.45 456.04 631.84 455.67 639.35 C 453.35 637.21 453.52 633.86 452.82 631.03 C 445.54 595.15 438.12 559.28 432.15 523.14 C 430.81 516.96 430.26 510.45 427.37 504.73 C 424.21 504.91 421.05 504.22 419.37 501.29 C 412.52 501.72 405.67 501.44 398.82 501.59 C 396.56 500.22 394.39 498.66 392.84 496.49 C 390.80 496.31 388.62 496.46 386.86 495.21 C 388.97 494.91 391.10 494.76 393.21 494.49 C 388.65 494.35 384.08 494.25 379.52 494.26 L 379.47 492.50 C 382.32 492.48 385.18 492.26 387.99 491.76 C 390.88 491.21 393.99 491.77 396.71 490.46 C 391.75 490.08 386.90 491.69 381.95 491.25 C 380.58 491.51 379.70 490.38 378.80 489.62 C 386.04 489.19 393.38 489.02 400.44 487.18 C 402.10 486.80 403.40 485.68 404.51 484.45 C 402.70 484.37 400.90 484.36 399.09 484.35 L 399.12 482.81 C 405.30 481.98 411.00 479.08 417.21 478.19 C 411.59 473.42 404.59 470.73 397.82 468.04 C 393.64 466.30 388.84 465.72 385.46 462.47 C 378.15 457.67 369.34 456.01 361.45 452.44 C 355.52 449.76 349.47 447.36 343.64 444.48 C 340.06 448.02 337.22 452.23 333.44 455.57 C 334.86 450.64 339.09 447.38 341.87 443.26 C 338.62 442.86 336.94 446.09 334.82 447.95 C 327.70 455.04 321.26 462.76 314.23 469.94 C 314.42 468.72 314.46 467.39 315.44 466.50 C 322.37 458.41 329.26 450.28 336.27 442.26 C 336.31 441.91 336.37 441.21 336.40 440.85 C 326.70 437.75 317.49 433.30 307.88 429.96 C 307.73 429.51 307.43 428.61 307.28 428.16 C 316.62 430.64 325.66 434.16 334.89 437.05 C 338.13 437.93 341.24 439.65 344.65 439.71 C 351.17 432.48 356.54 424.31 362.75 416.83 C 362.65 416.24 362.45 415.06 362.34 414.47 C 365.71 410.27 370.44 406.65 371.96 401.35 C 373.87 398.75 375.88 396.11 376.56 392.89 C 377.59 392.80 378.63 392.71 379.67 392.63 C 378.81 392.01 377.96 391.40 377.15 390.74 C 380.67 382.83 387.24 376.99 392.31 370.14 C 390.38 371.59 388.44 373.06 386.25 374.09 C 385.09 374.81 383.93 375.54 382.76 376.23 C 385.55 371.54 389.66 367.58 394.47 364.99 C 390.04 355.32 385.80 345.57 381.43 335.88 C 378.73 329.83 374.77 324.45 372.08 318.40 L 370.84 318.35 C 370.11 325.55 367.71 332.44 366.24 339.51 C 365.30 342.92 365.15 346.97 362.11 349.32 C 362.88 351.15 363.64 352.99 363.89 354.98 C 356.37 344.90 348.88 334.79 341.79 324.39 C 342.38 324.26 343.55 324.01 344.14 323.89 C 343.42 323.81 341.99 323.65 341.27 323.57 C 338.85 319.59 336.33 315.67 333.76 311.78 C 332.43 331.53 331.66 351.31 330.17 371.05 C 328.43 381.49 327.61 392.07 327.27 402.64 C 327.63 403.99 325.58 403.42 325.85 402.49 C 325.83 398.91 326.39 395.35 326.45 391.77 C 325.95 391.42 324.95 390.72 324.45 390.37 C 324.55 386.27 324.74 382.18 324.58 378.09 C 323.53 378.48 322.50 378.88 321.47 379.30 C 321.33 380.43 321.18 381.56 321.00 382.70 C 318.86 382.50 320.17 379.63 319.47 378.45 C 316.65 379.81 317.57 383.04 317.22 385.47 C 313.92 380.07 313.29 373.63 313.60 367.43 C 313.00 369.17 312.55 370.98 311.57 372.56 C 311.49 370.36 311.71 368.15 311.40 365.97 C 310.37 359.66 310.82 353.25 310.70 346.89 C 311.91 339.33 311.29 331.61 312.25 324.02 C 312.24 316.05 314.43 308.18 313.38 300.21 C 312.77 300.40 311.56 300.78 310.95 300.97 C 311.40 300.52 312.30 299.61 312.74 299.16 C 312.22 294.11 311.43 289.08 311.53 283.98 C 311.70 281.40 310.61 278.43 312.37 276.22 C 312.56 274.00 313.28 271.91 314.41 269.99 L 311.58 270.31 C 311.96 268.93 312.33 267.54 312.78 266.18 C 313.70 266.71 314.56 267.31 315.46 267.88 C 315.64 269.22 315.82 270.57 316.01 271.91 C 317.39 270.68 318.98 269.99 320.84 270.71 C 320.92 270.33 321.09 269.57 321.17 269.20 C 325.43 271.69 329.54 274.77 331.96 279.19 C 334.18 283.43 337.42 286.99 339.98 291.01 C 344.71 298.35 350.60 304.87 355.13 312.34 C 355.64 311.49 356.66 309.77 357.17 308.91 C 356.03 306.14 355.54 300.81 359.30 300.09 C 359.76 292.67 361.99 285.44 361.64 277.97 C 361.49 272.57 363.31 267.41 363.79 262.07 C 364.98 262.97 366.18 263.86 367.41 264.72 C 370.26 269.52 372.28 274.74 374.37 279.90 C 375.36 282.66 377.83 284.48 379.10 287.10 C 381.98 292.73 385.69 297.91 388.21 303.73 C 390.03 307.94 392.22 311.99 393.88 316.27 C 391.20 314.99 390.73 311.77 389.08 309.57 C 389.57 312.32 390.77 314.86 391.83 317.43 C 396.37 328.24 400.07 339.39 404.65 350.18 C 408.68 345.87 413.25 341.99 416.61 337.11 C 411.83 323.51 406.14 310.25 400.38 297.05 C 404.41 299.28 405.82 304.00 408.64 307.39 C 406.30 302.25 403.74 297.17 402.17 291.72 C 406.25 294.71 407.54 299.98 409.88 304.23 C 409.56 300.16 407.96 296.37 406.76 292.51 C 405.10 287.52 403.88 282.34 401.27 277.73 C 402.02 277.13 402.76 276.52 403.52 275.91 C 402.97 280.07 406.00 283.35 407.65 286.88 C 407.20 285.22 406.67 283.58 406.17 281.95 C 404.03 279.80 404.58 276.67 403.77 274.00 C 402.98 271.34 402.24 268.63 402.25 265.83 C 404.05 268.57 405.13 271.69 406.59 274.62 C 407.06 275.75 409.81 276.82 408.65 273.65 C 409.21 274.01 410.35 274.73 410.91 275.09 C 411.91 275.41 413.58 274.79 413.97 276.12 C 415.93 280.26 418.22 284.22 420.64 288.11 C 424.65 298.00 427.87 308.24 432.58 317.85 C 443.24 304.15 454.13 290.60 465.45 277.42 C 468.44 274.16 470.84 270.16 474.76 267.89 C 473.82 272.71 470.90 276.78 469.44 281.39 L 471.02 281.46 C 473.28 278.82 474.86 275.52 477.91 273.64 C 475.28 278.57 471.72 282.92 468.58 287.52 C 468.76 288.88 468.91 290.22 469.12 291.58 C 473.78 287.89 476.22 282.02 481.18 278.68 C 479.77 281.88 477.33 284.45 475.22 287.20 C 468.71 295.46 461.66 303.29 455.32 311.69 C 464.05 303.28 472.50 294.58 480.04 285.11 C 481.54 282.67 482.89 280.14 484.52 277.78 C 484.43 278.73 484.27 280.61 484.19 281.56 C 492.29 272.62 503.65 267.59 515.10 264.56 C 519.78 264.25 524.62 263.84 529.18 265.25 C 532.10 266.45 535.06 264.77 538.01 264.60 C 541.85 263.99 545.64 265.04 549.39 265.74 C 541.88 260.29 532.29 257.28 523.03 258.78 C 513.66 261.29 504.74 265.42 496.89 271.12 C 497.39 268.86 499.34 267.47 500.94 265.99 C 507.51 260.20 516.00 255.93 524.96 256.57 C 536.63 256.34 547.77 261.33 556.51 268.84 C 556.07 265.21 554.04 261.47 555.40 257.86 C 555.72 255.03 555.85 252.19 555.80 249.35 C 556.22 249.28 557.04 249.16 557.45 249.10 C 557.41 250.08 557.31 252.03 557.27 253.00 C 559.39 252.86 561.74 251.75 562.16 249.46 C 562.34 246.93 561.78 244.18 563.42 241.99 C 564.95 243.74 567.06 244.50 568.13 241.83 C 570.38 257.67 572.38 273.57 575.03 289.36 C 575.62 293.17 576.36 296.96 576.48 300.82 C 576.96 300.66 577.92 300.34 578.39 300.18 C 579.16 305.71 580.22 311.19 580.90 316.74 C 579.97 316.26 579.03 315.81 578.10 315.39 C 578.13 317.09 580.25 316.83 581.40 317.32 C 581.79 322.92 583.28 328.37 584.43 333.86 C 591.64 333.90 598.83 332.64 605.69 330.47 C 606.95 313.64 608.17 296.81 608.83 279.95 C 609.14 276.15 607.89 272.19 609.21 268.51 C 610.40 274.94 608.86 281.55 610.40 287.91 C 611.03 282.96 610.20 277.94 611.06 273.00 C 611.56 270.44 611.08 267.87 610.23 265.45 C 610.67 265.18 611.56 264.63 612.00 264.35 C 612.42 263.20 612.87 262.06 613.33 260.92 C 613.05 255.97 613.16 251.00 613.56 246.06 C 613.79 245.65 614.27 244.83 614.50 244.42 C 614.46 248.17 614.60 251.92 615.55 255.58 C 616.55 255.61 618.56 255.67 619.56 255.70 C 619.55 254.85 619.53 253.16 619.53 252.31 C 619.81 252.33 620.37 252.37 620.65 252.39 C 620.51 259.91 619.44 267.44 620.09 274.94 L 622.26 274.89 C 622.51 271.40 622.74 267.90 622.77 264.40 C 623.16 264.43 623.95 264.49 624.34 264.52 C 623.76 270.86 623.42 277.21 623.57 283.59 L 625.60 283.51 C 625.72 281.87 625.97 280.24 626.37 278.65 C 630.87 278.25 635.03 276.13 639.61 276.28 C 639.94 276.00 640.59 275.43 640.92 275.14 C 639.43 274.94 638.16 274.35 637.11 273.36 C 634.47 273.18 631.85 272.79 629.24 272.40 C 629.23 271.94 629.21 271.02 629.20 270.56 C 635.69 271.92 642.37 271.20 648.90 272.25 C 660.88 272.84 672.87 273.30 684.86 272.65 C 685.11 270.99 686.50 270.58 687.88 270.30 C 687.34 271.33 686.80 272.36 686.25 273.38 C 694.70 273.66 703.16 273.84 711.57 274.72 C 716.48 275.80 721.33 277.42 726.43 277.44 C 724.91 276.18 723.38 274.98 721.85 273.77 C 722.60 273.50 724.11 272.97 724.87 272.70 C 720.67 271.49 716.32 271.45 712.01 271.37 C 707.15 269.06 701.66 268.99 696.42 269.64 C 696.44 269.31 696.48 268.64 696.50 268.31 C 704.85 267.90 713.17 268.83 721.43 269.92 C 726.96 270.85 732.61 271.11 738.03 272.66 C 738.85 266.50 741.81 260.96 743.64 255.09 C 744.71 252.28 745.20 249.13 747.21 246.78 C 749.10 240.26 750.22 233.52 752.46 227.10 C 753.12 224.98 754.77 223.44 756.14 221.77 C 756.72 225.90 758.29 229.81 758.96 233.92 C 760.09 239.54 759.99 245.34 761.49 250.88 C 762.62 255.23 763.19 259.70 764.08 264.10 C 764.80 264.67 765.57 265.20 766.37 265.70 C 767.47 268.68 767.80 271.85 767.30 274.99 C 767.81 275.64 768.82 276.94 769.33 277.60 C 775.22 264.92 781.35 252.35 786.72 239.45 C 788.39 233.66 792.06 228.74 796.36 224.61 C 796.40 225.38 796.47 226.91 796.51 227.67 C 797.16 227.02 798.46 225.73 799.10 225.08 C 799.62 225.84 800.65 227.37 801.17 228.14 C 801.33 226.22 801.47 224.31 801.58 222.39 L 802.76 222.52 C 802.79 221.81 802.86 220.39 802.89 219.68 C 804.47 220.90 804.72 222.83 804.99 224.67 L 802.71 224.23 C 804.27 226.99 805.11 230.04 804.81 233.22 C 805.24 233.20 806.10 233.14 806.54 233.12 C 806.50 240.77 807.90 248.36 807.32 256.02 C 807.23 259.67 806.32 263.35 807.22 266.97 C 809.89 280.18 811.37 293.59 813.11 306.95 C 813.64 311.90 814.88 316.78 814.72 321.80 C 814.89 321.76 815.24 321.68 815.42 321.64 C 815.31 317.45 814.90 313.28 814.52 309.11 C 814.37 298.73 815.83 288.40 815.51 278.02 C 815.19 272.37 815.53 266.69 814.77 261.07 C 813.90 255.67 815.45 250.33 815.63 244.95 C 815.70 241.17 817.92 237.79 817.69 233.97 C 817.71 225.99 817.72 217.96 816.48 210.06 C 815.76 204.68 816.67 199.18 818.68 194.17 C 819.63 194.34 820.59 194.55 821.55 194.78 C 821.91 197.22 821.77 199.69 821.75 202.15 C 822.19 202.54 823.06 203.33 823.50 203.72 C 823.95 205.84 824.39 207.96 824.81 210.09 C 826.45 204.32 826.15 198.17 828.17 192.51 C 829.45 195.19 829.30 198.10 828.58 200.92 C 829.12 200.85 830.21 200.71 830.75 200.65 C 829.92 211.14 829.39 221.65 829.78 232.18 C 830.25 232.47 831.20 233.05 831.67 233.34 C 831.21 234.77 830.72 236.20 830.31 237.64 C 831.08 237.59 832.62 237.49 833.38 237.44 C 833.46 242.89 832.90 248.30 832.71 253.74 C 837.44 248.27 838.29 240.64 843.08 235.25 C 846.25 231.67 848.83 227.64 851.38 223.61 C 851.38 224.31 851.39 225.71 851.39 226.41 C 854.68 223.49 858.43 221.18 862.28 219.08 C 863.88 214.94 868.21 212.96 871.76 210.77 C 878.51 206.88 886.80 207.83 893.85 210.36 C 902.15 213.32 908.60 219.82 913.64 226.85 C 915.30 222.74 918.75 219.58 919.80 215.19 C 922.16 206.63 919.97 197.70 920.84 188.99 C 921.51 184.17 921.78 179.09 924.00 174.67 C 926.02 179.04 922.82 184.49 926.04 188.39 C 926.34 186.38 926.85 184.36 928.32 182.88 C 929.87 187.37 925.71 191.11 926.77 195.61 C 929.60 194.05 929.89 190.56 931.17 187.91 C 934.78 192.22 929.86 199.71 935.71 202.82 C 935.58 203.36 935.33 204.45 935.20 205.00 C 936.33 206.58 937.45 208.18 938.56 209.79 C 937.12 216.26 942.46 221.60 942.62 227.95 C 943.22 230.73 942.05 233.35 941.48 236.01 C 941.50 244.74 943.68 253.30 943.58 262.03 C 943.35 267.48 945.82 272.57 945.89 278.01 C 946.39 278.37 947.38 279.08 947.88 279.44 C 948.72 279.36 950.38 279.21 951.22 279.13 C 952.25 274.18 951.55 269.02 952.13 263.99 C 951.99 253.97 952.72 243.98 953.41 234.00 C 953.28 228.38 954.72 222.79 953.88 217.19 C 953.17 209.58 954.11 201.94 953.62 194.32 C 953.25 196.20 953.04 198.12 952.72 200.01 C 952.47 199.83 951.96 199.45 951.71 199.26 C 952.27 195.86 952.08 192.47 951.67 189.07 C 952.52 183.63 953.30 178.15 953.54 172.64 C 954.04 172.37 955.04 171.83 955.54 171.56 C 956.62 169.00 957.60 166.41 958.65 163.84 C 960.83 163.45 962.93 162.16 965.22 162.81 C 965.29 161.99 965.42 160.33 965.48 159.51 M 864.25 217.89 C 868.87 217.07 873.28 215.33 877.95 214.75 C 882.73 214.93 887.59 215.80 891.74 218.33 C 896.42 216.82 901.20 218.35 905.66 219.86 C 899.34 213.04 889.30 208.31 880.01 211.31 C 874.52 212.83 868.86 214.38 864.25 217.89 M 894.70 222.74 L 895.61 225.04 C 900.21 227.32 904.03 230.72 907.76 234.19 C 906.37 231.01 901.90 229.27 902.45 225.47 C 899.97 224.28 897.37 223.34 894.70 222.74 M 872.81 241.86 C 865.87 244.18 860.32 249.26 855.96 254.98 C 852.28 259.10 851.21 264.67 849.83 269.83 C 847.49 280.47 846.62 291.52 847.97 302.36 C 849.78 311.52 857.10 318.33 864.41 323.53 C 867.49 325.95 871.47 326.56 875.29 326.59 C 875.44 326.75 875.75 327.07 875.91 327.23 C 881.57 327.55 887.20 326.88 892.81 326.09 C 890.58 320.34 891.34 313.93 892.28 307.98 C 891.16 305.12 890.45 302.09 890.35 299.02 C 890.70 295.93 892.23 293.09 892.59 289.99 C 892.04 289.72 890.92 289.16 890.37 288.88 C 890.74 288.35 891.49 287.29 891.86 286.76 C 890.80 285.33 889.25 284.23 887.57 283.68 C 886.15 283.06 883.41 284.20 883.40 281.83 C 887.49 279.09 894.05 281.18 897.39 277.05 C 899.97 269.45 901.94 261.64 904.64 254.08 C 905.48 251.49 906.88 248.93 906.43 246.12 C 904.75 245.62 903.11 245.06 901.49 244.44 C 901.48 243.81 901.46 242.54 901.45 241.90 C 892.86 236.25 881.79 238.24 872.81 241.86 M 919.07 252.89 C 916.20 260.45 913.70 268.15 911.80 276.01 C 911.39 277.98 911.59 280.00 911.59 282.00 C 911.08 282.88 910.57 283.77 910.09 284.67 C 915.29 284.68 920.49 284.43 925.69 284.27 C 925.16 281.55 924.55 278.84 924.07 276.11 C 923.46 276.25 922.24 276.53 921.62 276.68 C 921.54 274.93 921.47 273.18 921.40 271.44 L 922.86 271.47 C 921.51 265.29 919.80 259.19 919.07 252.89 M 526.54 270.25 C 529.75 270.67 533.11 270.29 536.19 271.52 C 538.24 273.02 540.80 273.45 543.11 274.42 C 546.59 275.79 549.61 278.01 552.78 279.95 C 550.36 276.87 546.95 274.90 543.69 272.86 C 544.72 272.75 546.79 272.52 547.83 272.41 C 541.02 270.36 533.60 268.77 526.54 270.25 M 544.94 282.47 C 547.46 284.15 550.19 285.50 552.99 286.70 C 552.76 282.88 547.68 283.40 544.94 282.47 M 541.57 287.51 C 531.09 285.66 520.50 289.20 511.21 293.90 C 503.16 297.47 497.07 304.23 492.23 311.40 C 489.43 315.39 488.72 320.34 487.79 325.01 C 485.80 337.27 485.92 350.11 489.62 362.03 C 493.72 370.82 502.68 376.03 511.21 379.85 C 515.43 382.08 520.30 381.48 524.90 381.42 C 535.05 380.88 545.46 378.66 554.03 372.94 C 557.12 370.95 559.48 368.07 562.39 365.85 C 561.20 369.00 561.79 372.71 559.57 375.44 C 557.20 379.28 553.19 381.47 549.69 384.09 C 552.34 383.09 554.82 381.71 557.52 380.80 C 556.36 382.16 555.21 383.53 553.97 384.82 C 554.82 384.67 556.52 384.37 557.37 384.23 C 553.56 388.06 549.08 391.12 544.43 393.85 C 548.03 393.65 551.63 393.23 555.25 393.38 C 553.01 395.49 549.88 396.04 547.03 396.84 C 538.51 398.83 529.79 400.26 521.02 399.94 C 516.35 399.35 511.75 398.40 507.11 397.63 C 503.95 397.14 500.50 396.18 498.75 393.24 C 504.25 394.11 509.42 396.41 514.94 397.26 C 516.65 397.40 519.32 398.39 519.94 395.89 C 514.41 394.28 508.66 393.50 502.92 393.24 C 492.26 389.69 482.35 383.46 475.43 374.51 C 468.30 365.88 462.45 355.11 463.46 343.57 C 464.75 346.15 464.94 349.24 466.83 351.50 C 465.01 342.22 461.71 332.95 462.90 323.33 C 463.13 323.30 463.58 323.25 463.81 323.23 C 464.88 326.80 463.97 330.62 464.51 334.29 C 464.65 330.18 465.32 325.77 464.10 321.82 C 463.60 320.96 463.51 320.06 463.82 319.13 C 464.78 315.00 466.35 311.06 467.95 307.15 C 461.37 312.61 457.43 320.42 450.96 325.97 C 444.65 332.98 439.26 340.83 432.21 347.17 C 425.65 354.94 419.73 363.24 413.33 371.13 C 414.07 375.00 416.30 378.38 418.02 381.88 C 419.07 384.73 422.48 385.20 424.11 387.59 C 424.82 387.05 425.53 386.52 426.25 386.00 C 426.42 386.82 426.77 388.46 426.95 389.27 C 429.62 389.54 432.60 389.28 434.86 391.00 C 437.39 392.82 437.94 396.08 438.71 398.89 C 444.82 398.76 450.94 398.59 457.04 398.15 C 467.03 396.95 477.05 398.28 487.04 398.71 C 502.83 400.36 519.69 402.88 532.24 413.48 C 537.39 416.13 538.18 422.29 541.33 426.59 C 546.31 421.48 551.83 416.87 557.78 412.94 C 560.59 410.99 564.05 409.96 566.33 407.29 C 570.86 402.53 577.21 400.32 582.91 397.35 C 581.99 393.98 581.10 390.60 580.51 387.16 C 579.40 386.42 578.54 385.41 578.46 384.04 C 576.45 374.56 574.36 365.10 572.28 355.63 C 564.52 355.58 556.78 356.30 549.02 356.33 C 550.89 351.74 556.77 353.55 559.41 350.05 C 557.46 349.77 555.54 349.55 553.60 349.33 C 553.60 348.92 553.61 348.11 553.61 347.70 C 557.65 348.16 562.15 349.75 565.88 347.35 C 563.49 347.22 561.10 347.24 558.72 347.15 C 562.32 344.31 567.34 344.76 571.29 342.53 C 567.90 342.31 564.57 343.12 561.26 343.70 C 563.56 341.37 566.69 340.32 569.53 338.83 C 569.14 332.43 567.35 326.21 566.10 319.94 C 564.10 313.73 563.31 307.17 560.73 301.15 C 557.77 299.51 555.74 296.86 553.74 294.23 C 552.06 291.90 548.88 292.23 546.44 291.37 C 546.38 290.74 546.26 289.46 546.20 288.83 C 544.86 288.57 543.53 288.31 542.20 288.06 C 542.32 287.54 542.55 286.49 542.67 285.97 C 542.39 286.36 541.84 287.13 541.57 287.51 M 555.04 286.43 C 554.05 287.42 554.61 289.57 556.06 289.80 C 558.29 289.61 556.94 285.50 555.04 286.43 M 557.48 290.06 C 557.38 293.00 558.78 295.60 560.28 298.03 C 560.69 294.99 560.24 291.82 557.48 290.06 M 623.37 292.56 C 622.79 304.51 621.81 316.47 622.42 328.45 C 625.61 327.60 628.84 326.89 632.07 326.18 C 632.90 324.21 634.18 322.49 635.60 320.90 C 635.66 319.23 635.86 317.57 636.30 315.97 C 638.14 310.20 636.77 304.10 637.58 298.19 C 635.28 295.33 630.96 297.39 628.40 295.11 C 628.50 294.43 628.72 293.06 628.83 292.38 C 627.00 292.44 625.18 292.50 623.37 292.56 M 946.89 298.89 C 948.31 304.44 948.08 310.13 948.89 315.75 C 949.52 315.65 950.79 315.44 951.42 315.34 C 951.79 309.33 952.20 303.19 950.16 297.41 C 949.06 297.90 947.97 298.39 946.89 298.89 M 1027.39 303.75 C 1027.50 304.16 1027.73 304.96 1027.84 305.36 C 1031.03 304.89 1034.22 304.39 1037.45 304.07 C 1036.92 303.51 1036.41 302.95 1035.91 302.40 C 1033.11 303.14 1030.27 303.64 1027.39 303.75 M 1019.92 313.41 C 1017.76 313.57 1015.53 313.51 1013.53 314.40 C 1019.08 314.85 1024.90 315.11 1030.15 312.94 C 1026.73 312.24 1023.33 313.28 1019.92 313.41 M 951.07 330.71 C 951.81 329.41 951.82 327.53 951.12 326.23 C 949.69 326.55 949.79 330.23 951.07 330.71 M 622.37 344.12 C 621.46 355.30 620.95 366.54 621.50 377.77 C 624.81 376.74 628.15 375.80 631.39 374.54 C 631.54 370.58 631.05 366.33 633.49 362.92 C 633.70 359.85 632.36 356.86 633.02 353.82 C 633.74 349.28 633.55 344.65 633.81 340.08 C 630.06 341.59 626.38 343.39 622.37 344.12 M 589.91 352.55 C 588.58 352.75 587.52 353.56 586.51 354.37 C 588.29 363.84 588.87 373.50 590.25 383.01 C 592.02 386.79 591.84 390.95 591.77 395.03 C 596.00 393.78 600.18 392.03 604.70 392.44 C 603.40 386.02 603.86 379.49 604.37 373.02 C 604.10 364.71 604.48 356.40 604.76 348.09 C 599.80 349.57 594.90 351.22 589.91 352.55 M 466.13 352.56 C 466.94 357.51 469.37 362.00 471.79 366.33 C 475.65 372.85 480.65 379.00 487.24 382.90 C 482.19 377.56 476.85 372.38 472.86 366.16 C 470.02 361.92 469.32 356.60 466.13 352.56 M 383.53 402.53 C 379.69 406.38 377.10 411.27 373.35 415.17 C 369.03 416.99 366.30 420.92 362.87 423.92 C 359.85 426.87 356.12 429.16 353.76 432.74 C 351.72 435.70 348.59 437.77 346.93 441.03 C 358.69 444.53 370.38 448.28 382.21 451.54 C 383.13 450.93 384.07 450.34 385.01 449.76 C 384.86 450.44 384.55 451.81 384.40 452.50 C 392.83 454.97 401.23 457.57 409.70 459.90 C 409.74 459.54 409.83 458.83 409.87 458.48 C 403.21 456.74 396.54 455.05 389.84 453.48 C 388.23 453.35 387.14 452.20 386.15 451.07 C 392.18 451.44 397.81 453.89 403.73 454.95 C 404.27 454.54 405.35 453.72 405.89 453.31 C 405.85 454.12 405.76 455.75 405.71 456.56 C 407.02 455.71 408.29 454.79 409.51 453.81 C 408.63 453.65 406.88 453.35 406.00 453.20 C 404.27 452.43 402.54 451.65 400.88 450.75 C 406.43 449.99 411.16 454.25 416.56 455.04 C 415.35 448.65 414.30 442.24 412.71 435.94 C 411.67 431.71 410.66 427.28 407.70 423.93 C 407.09 420.37 406.51 416.81 406.20 413.21 C 402.95 413.51 399.74 414.09 396.54 414.72 C 396.44 413.93 396.24 412.34 396.14 411.54 C 398.75 410.98 401.67 410.67 403.67 408.69 C 407.97 404.91 408.40 398.36 406.94 393.16 C 407.60 391.69 408.29 390.24 408.96 388.78 C 406.95 386.52 405.01 384.22 403.01 381.98 C 396.38 388.71 390.19 395.84 383.53 402.53 M 619.91 385.08 C 619.93 387.59 620.27 390.07 620.30 392.58 C 623.14 392.44 625.99 392.39 628.84 392.42 C 627.58 388.93 625.86 385.65 624.19 382.35 C 622.70 383.07 619.98 382.85 619.91 385.08 M 657.56 401.05 C 663.89 405.88 671.63 408.58 678.20 413.13 C 672.18 407.89 665.19 403.46 657.56 401.05 M 927.12 404.06 C 927.88 404.53 928.69 404.95 929.53 405.32 C 940.92 403.68 952.54 403.77 963.95 405.15 C 966.36 404.92 968.76 404.55 971.18 404.26 C 969.17 403.93 967.14 403.69 965.13 403.46 C 964.04 402.24 962.98 400.51 961.09 400.76 C 949.66 400.37 938.43 402.95 927.12 404.06 M 867.62 402.70 C 866.68 412.75 867.25 423.02 864.84 432.89 C 869.15 428.30 874.49 424.89 878.80 420.29 C 877.18 417.28 875.46 414.31 873.95 411.24 C 873.34 411.26 872.12 411.29 871.52 411.30 C 871.59 410.26 871.67 409.23 871.77 408.20 C 870.26 406.45 868.92 404.58 867.62 402.70 M 468.05 410.03 C 458.18 410.86 448.05 409.09 438.36 411.68 C 441.38 426.97 443.99 442.42 448.78 457.29 C 450.50 463.14 454.90 467.61 459.07 471.84 C 472.37 466.96 485.41 461.31 498.07 454.95 C 503.42 452.18 508.76 449.24 513.42 445.39 C 516.95 442.75 517.67 438.05 520.65 434.94 C 520.61 425.49 512.24 419.06 504.18 415.98 C 492.75 411.65 480.36 407.96 468.05 410.03 M 558.90 416.78 C 564.66 415.73 569.76 412.43 574.37 408.96 C 568.56 409.98 564.08 414.24 558.90 416.78 M 593.19 422.11 C 590.79 427.42 594.82 432.63 594.64 438.04 C 594.56 443.63 595.22 449.17 595.70 454.73 C 595.42 454.74 594.86 454.75 594.58 454.76 C 594.16 449.30 593.28 443.86 591.49 438.68 C 590.18 435.08 591.33 430.63 588.49 427.68 C 588.01 426.29 587.56 424.86 587.15 423.46 C 577.16 425.51 570.63 434.11 565.12 442.01 C 561.52 446.76 559.55 452.46 557.89 458.11 C 556.82 461.73 558.03 465.44 558.73 469.00 C 559.94 473.98 561.33 479.15 564.70 483.15 C 567.90 487.03 571.75 490.43 576.20 492.83 C 579.39 494.55 583.09 495.25 586.05 497.45 C 580.39 497.78 575.88 493.97 571.28 491.31 C 571.00 491.68 570.44 492.43 570.16 492.81 C 567.82 490.56 565.44 488.29 562.57 486.74 C 568.46 494.20 577.19 498.75 585.97 501.96 C 593.32 504.84 601.31 505.00 609.03 506.13 C 615.59 504.29 622.58 504.95 629.03 502.61 C 633.12 501.22 637.27 499.61 640.69 496.89 C 640.20 486.20 638.23 475.61 637.22 464.95 C 635.15 449.63 633.82 434.19 631.45 418.91 C 627.57 418.34 623.74 417.41 619.81 417.28 C 619.51 423.91 618.86 430.51 618.11 437.10 C 617.36 434.96 616.66 432.81 615.80 430.71 C 615.26 435.64 615.25 440.61 615.11 445.57 C 614.53 445.57 613.37 445.56 612.79 445.56 C 612.72 449.10 612.52 452.65 612.18 456.19 C 611.68 456.38 610.66 456.77 610.16 456.96 C 609.43 458.09 608.72 459.24 608.03 460.39 C 607.59 459.18 607.15 457.98 606.72 456.78 C 606.51 458.19 606.27 459.60 606.00 461.00 C 604.52 460.71 604.18 459.15 603.89 457.93 C 602.81 444.74 604.79 431.48 603.70 418.31 C 600.07 418.68 595.33 418.57 593.19 422.11 M 918.60 424.02 C 917.83 428.55 919.08 433.07 918.71 437.61 C 918.40 441.54 918.19 445.49 918.21 449.44 C 923.84 449.82 929.57 449.75 935.04 451.38 C 943.51 451.70 952.13 451.87 960.54 450.70 C 960.57 450.87 960.62 451.22 960.65 451.39 C 946.40 454.72 931.61 454.53 917.16 456.41 C 917.43 459.86 918.53 463.14 919.32 466.49 C 926.14 467.92 932.98 469.81 940.01 469.73 C 949.41 469.84 958.83 469.80 968.22 469.23 C 968.20 468.05 968.18 466.87 968.18 465.70 C 966.61 462.90 968.22 459.92 968.42 457.01 C 968.71 451.29 969.68 445.64 970.06 439.93 C 969.85 437.22 968.62 434.72 968.20 432.05 C 969.13 430.71 970.39 429.65 971.43 428.39 C 972.51 424.75 973.61 421.08 974.02 417.29 C 955.34 416.54 936.60 419.04 918.60 424.02 M 639.33 422.78 C 641.21 445.83 644.16 468.79 646.07 491.83 C 649.61 488.44 653.22 485.10 656.59 481.55 C 659.32 476.28 661.30 470.59 663.12 464.94 C 664.59 455.19 662.55 443.84 654.67 437.20 C 650.51 433.31 646.91 428.79 642.42 425.27 C 641.38 424.44 640.36 423.60 639.33 422.78 M 810.39 451.64 C 814.46 451.74 818.52 452.27 822.60 452.42 C 822.42 450.88 822.26 449.35 822.11 447.82 C 821.68 447.52 820.82 446.91 820.38 446.60 C 821.22 441.87 819.77 437.22 819.20 432.56 C 815.39 438.48 812.05 444.76 810.39 451.64 M 440.73 439.99 C 441.48 445.56 442.81 451.05 444.68 456.36 C 445.72 459.20 446.65 462.21 448.80 464.45 C 447.91 459.85 446.16 455.47 444.84 450.98 C 443.58 447.28 442.94 443.28 440.73 439.99 M 896.65 442.72 C 896.47 445.01 896.34 447.31 896.22 449.61 C 898.10 449.61 899.99 449.62 901.89 449.61 C 900.44 447.10 898.84 444.65 896.65 442.72 M 866.78 450.90 C 865.73 448.54 864.42 446.31 863.04 444.15 C 861.89 447.13 864.15 449.75 866.78 450.90 M 788.08 448.42 C 788.77 454.25 792.08 459.30 793.74 464.87 C 793.98 464.76 794.45 464.55 794.69 464.44 C 790.64 460.49 795.92 455.40 794.59 450.73 C 793.12 450.00 791.64 449.27 790.17 448.59 C 791.02 451.16 792.24 453.63 792.53 456.36 C 790.53 454.01 789.48 451.11 788.08 448.42 M 899.07 457.79 C 902.86 461.34 907.79 463.25 912.73 464.61 C 912.06 462.00 909.98 460.32 908.04 458.69 C 908.80 458.61 910.32 458.46 911.09 458.38 C 910.15 457.83 909.21 457.28 908.30 456.75 C 905.25 457.33 902.14 457.46 899.07 457.79 M 878.63 462.98 C 882.01 465.69 886.22 467.43 890.53 467.95 C 886.59 466.23 882.81 464.02 878.63 462.98 M 557.16 473.97 C 558.99 478.54 561.09 483.58 565.51 486.24 C 561.89 480.92 558.25 475.47 556.84 469.08 C 556.69 467.48 556.50 465.89 556.26 464.31 C 554.63 467.41 556.25 470.89 557.16 473.97 M 835.80 473.70 C 834.59 481.35 836.00 489.09 835.18 496.77 L 836.26 496.98 C 836.31 492.95 836.97 488.99 837.44 485.00 C 837.96 481.06 837.27 477.12 837.22 473.17 C 836.86 473.31 836.15 473.57 835.80 473.70 M 919.63 476.54 C 925.30 478.01 931.19 478.40 937.02 478.79 C 938.67 479.14 940.58 479.85 941.46 477.80 C 934.21 477.10 926.93 476.13 919.63 476.54 M 565.51 486.24 C 565.81 486.91 565.81 486.91 565.51 486.24 M 405.60 493.62 C 408.08 493.68 410.56 493.39 412.96 492.79 C 416.04 492.51 419.23 492.34 422.02 490.87 C 420.79 491.04 419.57 491.22 418.36 491.42 C 414.13 491.83 409.27 491.12 405.60 493.62 M 526.88 500.45 C 527.45 505.41 530.34 509.69 533.42 513.47 C 537.05 517.53 540.54 521.85 545.13 524.89 C 539.30 516.55 531.75 509.48 526.88 500.45 M 555.08 529.63 C 561.05 530.45 566.34 534.50 572.59 533.58 C 569.32 531.77 565.46 531.57 561.98 530.32 C 559.77 529.44 557.40 529.57 555.08 529.63 Z" />
<path fill="#76828b" opacity="1.00" d=" M 1008.36 178.93 C 1009.23 177.02 1008.94 174.16 1011.13 173.15 C 1012.98 172.72 1013.61 174.68 1014.57 175.82 C 1013.79 177.50 1013.23 179.40 1011.57 180.42 C 1008.46 182.66 1006.93 186.29 1004.43 189.07 C 1004.17 185.24 1007.42 182.47 1008.36 178.93 Z" />
<path fill="#76828b" opacity="1.00" d=" M 951.42 210.41 C 954.78 210.48 949.94 213.49 951.42 210.41 Z" />
<path fill="#76828b" opacity="1.00" d=" M 569.56 222.82 C 570.01 223.72 570.61 224.60 570.74 225.64 C 573.39 247.45 576.69 269.18 579.62 290.96 C 580.21 294.76 580.75 298.57 580.84 302.42 C 580.07 301.42 579.33 300.41 578.60 299.40 C 578.50 292.44 576.83 285.63 576.42 278.69 C 574.16 260.08 569.26 241.66 569.56 222.82 Z" />
<path fill="#76828b" opacity="1.00" d=" M 671.40 251.33 C 672.99 250.63 673.91 252.21 674.97 253.10 C 673.83 253.69 672.70 254.29 671.58 254.89 C 671.45 253.70 671.40 252.52 671.40 251.33 Z" />
<path fill="#76828b" opacity="1.00" d=" M 713.07 254.07 C 715.05 251.88 717.12 255.03 716.86 257.05 C 717.03 259.03 714.87 259.24 713.51 259.79 C 712.34 258.06 710.76 255.67 713.07 254.07 Z" />
<path fill="#76828b" opacity="1.00" d=" M 377.97 279.61 C 380.26 281.86 381.62 284.89 381.90 288.09 C 380.03 285.57 378.39 282.77 377.97 279.61 Z" />
<path fill="#76828b" opacity="1.00" d=" M 385.65 295.75 C 384.15 296.07 382.36 292.73 383.80 291.91 C 385.09 292.53 386.16 294.34 385.65 295.75 Z" />
<path fill="#76828b" opacity="1.00" d=" M 714.45 304.24 C 716.77 304.14 719.59 305.34 719.72 307.98 C 720.23 310.80 716.04 311.15 714.82 309.21 C 712.97 307.95 713.93 305.92 714.45 304.24 Z" />
<path fill="#76828b" opacity="1.00" d=" M 852.71 335.49 C 854.71 334.77 856.42 336.06 858.12 336.92 C 860.82 338.40 863.68 339.56 866.49 340.84 C 866.58 341.43 866.53 342.02 866.34 342.61 C 861.67 340.49 856.32 339.41 852.71 335.49 Z" />
<path fill="#76828b" opacity="1.00" d=" M 309.56 348.37 C 310.67 351.12 310.20 354.12 310.23 357.01 C 310.13 361.54 310.77 366.16 309.62 370.62 C 309.10 370.54 308.04 370.39 307.52 370.32 C 308.04 362.99 308.14 355.58 309.56 348.37 Z" />
<path fill="#76828b" opacity="1.00" d=" M 711.39 354.93 C 713.03 354.36 713.55 354.89 712.93 356.52 C 711.29 357.09 710.78 356.56 711.39 354.93 Z" />
</g>
</svg>
